<svg fill="none" xmlns="http://www.w3.org/2000/svg" viewBox="0 0 126 27" height="22" data-testid="brand-icon-text" aria-hidden="true" focusable="false"><path d="M0 6.56h2.3V4.39C2.3 1.76 3.74 0 6.6 0l1.44.29v2.63l-1.57-.29c-.86 0-1.29.59-1.29 1.47v2.46h2.86v2.63H5.17v11.13H2.3V9.19H0V6.56Zm15.48-.29c3.73 0 7.03 2.92 7.03 7.17s-3.3 7.17-7.03 7.17c-3.73 0-7.03-2.92-7.03-7.17s3.3-7.17 7.03-7.17Zm0 11.7c2.73 0 4.16-2.04 4.16-4.54s-1.44-4.54-4.16-4.54-4.16 2.04-4.16 4.54c-.01 2.5 1.43 4.54 4.16 4.54ZM30.8 6.27c3.73 0 7.03 2.92 7.03 7.17s-3.3 7.17-7.03 7.17c-3.73 0-7.03-2.92-7.03-7.17s3.3-7.17 7.03-7.17Zm0 11.7c2.73 0 4.16-2.04 4.16-4.54s-1.44-4.54-4.16-4.54-4.16 2.04-4.16 4.54c-.01 2.5 1.43 4.54 4.16 4.54Zm22.06 2.34h-2.58L50 19.14l-.15-.15-.15.15c-.86.88-2.3 1.47-3.73 1.47-3.73 0-6.89-2.92-6.89-7.17s3.16-7.17 6.89-7.17c1.4 0 2.87.59 3.73 1.47l.15.15.15-.15V0h2.87v20.3l-.01.01ZM46.12 8.9c-2.73 0-4.19 2.04-4.19 4.54s1.46 4.54 4.19 4.54c2.44 0 4.16-2.04 4.16-4.54S48.56 8.9 46.12 8.9Zm9.62-2.35h2.58l.26 1.17.17.15.15-.15c.86-.88 2.3-1.47 3.73-1.47 3.73 0 6.89 2.92 6.89 7.17s-3.16 7.17-6.89 7.17c-1.4 0-2.87-.59-3.73-1.47l-.15-.15-.17.15v7.38h-2.84V6.55Zm6.74 11.41c2.73 0 4.16-2.04 4.16-4.54s-1.44-4.54-4.16-4.54c-2.44 0-4.16 2.04-4.16 4.54s1.72 4.54 4.16 4.54Zm14.26-6.2h2.35v-.6c0-1.65-1.11-2.42-2.64-2.42-1.24 0-2.08.6-2.53 1.84l-2.57-.55c.57-2.35 2.53-3.82 5.13-3.82 3.61 0 5.42 1.82 5.42 5.48v8.62h-2.37l-.27-1.82c-.95 1.35-2.35 2.04-4.22 2.04-2.4 0-4.18-1.45-4.18-4.21s2.35-4.55 5.89-4.55c0 0-.01-.01 0-.01h-.01Zm-1.22 6.22c.95 0 1.78-.3 2.49-.9.72-.64 1.08-1.49 1.08-2.62v-.3h-2.46c-1.73 0-2.8.83-2.8 2.14-.01.99.59 1.68 1.7 1.68h-.01Zm9.02-11.44h2.58l.28 1.17.15.15.15-.15c.58-.88 2-1.47 3.16-1.47 3.44 0 5.45 2.35 5.45 5.56v8.49h-2.87V11.8c-.09-1.87-.97-2.92-2.86-2.92-1.7 0-3.1 1.4-3.16 3.1v8.32h-2.87V6.56h-.01v-.02Zm27.39 13.76h-2.58l-.28-1.17-.15-.15-.15.15c-.86.88-2.3 1.47-3.73 1.47-3.73 0-6.89-2.92-6.89-7.17s3.16-7.17 6.89-7.17c1.4 0 2.87.59 3.73 1.47l.15.15.15-.15V0h2.86v20.31-.02.01Zm-6.74-11.41c-2.73 0-4.19 2.04-4.19 4.54s1.46 4.54 4.19 4.54c2.43 0 4.16-2.04 4.16-4.54s-1.72-4.54-4.16-4.54Zm14.9 2.87h2.35v-.6c0-1.65-1.11-2.42-2.64-2.42-1.24 0-2.08.6-2.53 1.84l-2.57-.55c.57-2.35 2.53-3.82 5.13-3.82 3.61 0 5.42 1.82 5.42 5.48v8.62h-2.37l-.27-1.82c-.95 1.35-2.35 2.04-4.22 2.04-2.4 0-4.18-1.45-4.18-4.21s2.35-4.55 5.89-4.55c0 0-.01-.01 0-.01h-.01Zm-1.22 6.22c.95 0 1.78-.3 2.48-.9.72-.64 1.08-1.49 1.08-2.62v-.3h-2.46c-1.74 0-2.8.83-2.8 2.14 0 .99.59 1.68 1.7 1.68Z" fill="#ff2b85"/></svg>